<svg version="1.1" id="Layer_1" xmlns="http://www.w3.org/2000/svg" xmlns:xlink="http://www.w3.org/1999/xlink" x="0px" y="0px"
	 width="100%" viewBox="0 0 1185 165" enable-background="new 0 0 1185 165" xml:space="preserve">
<path fill="#010101" opacity="1.000000" stroke="none" 
	d="
M879.000000,166.000000 
	C586.000000,166.000000 293.500000,166.000000 1.000000,166.000000 
	C1.000000,111.000000 1.000000,56.000000 1.000000,1.000000 
	C396.000000,1.000000 791.000000,1.000000 1186.000000,1.000000 
	C1186.000000,56.000000 1186.000000,111.000000 1186.000000,166.000000 
	C1083.833374,166.000000 981.666687,166.000000 879.000000,166.000000 
M93.098907,93.281792 
	C135.257324,93.288345 177.415894,93.349739 219.573883,93.219208 
	C223.937042,93.205704 226.767273,94.232185 229.394455,98.086868 
	C239.505890,112.922653 249.169998,128.160919 262.623199,140.389557 
	C287.272583,162.795288 319.729156,166.203537 347.137054,144.698135 
	C361.498962,133.429184 372.718445,119.368111 381.760590,103.757874 
	C386.480591,95.609337 391.780060,92.464554 401.388733,93.029388 
	C418.132599,94.013657 434.976105,93.303329 451.764221,93.303329 
	C452.934570,88.114075 449.174561,89.802132 447.282013,89.800041 
	C378.795258,89.724220 310.308411,89.708870 241.821732,89.814934 
	C238.276764,89.820419 236.090378,88.842339 234.081299,85.853851 
	C229.465393,78.987717 224.760971,72.124397 219.460052,65.789101 
	C211.958969,56.824303 203.228073,49.168350 192.234497,43.805157 
	C190.960159,47.300575 189.793213,50.501457 188.783203,53.271839 
	C195.334778,58.852875 202.067444,63.787739 207.796402,69.695862 
	C213.409088,75.484085 217.999847,82.263237 223.762527,89.518173 
	C181.641846,89.518173 141.411163,89.518173 100.574669,89.518173 
	C108.073929,75.803925 118.530098,65.436745 130.382568,56.412636 
	C128.839447,53.046642 127.407822,49.923859 125.813324,46.445812 
	C110.577484,56.035316 99.514481,69.230103 90.212364,83.876419 
	C87.550705,88.067245 85.192490,89.904900 80.223862,89.843597 
	C59.564312,89.588707 38.899628,89.704552 18.237524,89.814850 
	C16.969925,89.821617 15.708327,90.952660 14.443941,91.560608 
	C15.573544,92.140572 16.702478,93.224579 17.832846,93.226074 
	C40.488407,93.256111 63.144138,93.161415 86.189835,93.735687 
	C86.450302,95.782593 86.470345,97.915375 87.148163,99.813225 
	C87.308289,100.261559 90.683861,100.316719 90.859917,99.871872 
	C91.576935,98.060219 91.619446,95.983124 91.927147,94.006432 
	C91.975571,93.695389 92.109550,93.397652 93.098907,93.281792 
M513.322632,110.030441 
	C512.586243,89.632912 511.849884,69.235382 511.060150,47.360229 
	C512.925110,49.919598 514.000916,51.283905 514.958252,52.726841 
	C527.281616,71.300697 539.573792,89.895241 551.907532,108.462227 
	C555.619629,114.050308 558.409363,113.930901 561.418030,108.080170 
	C572.292664,86.932915 583.133911,65.768471 594.000977,44.617302 
	C594.754150,43.151329 595.615295,41.740829 596.426270,40.304531 
	C596.802002,40.449074 597.177734,40.593616 597.553467,40.738159 
	C597.553467,73.668800 597.553467,106.599442 597.553467,139.502014 
	C601.255676,139.502014 604.491028,139.502014 607.768433,139.502014 
	C607.768433,103.202454 607.768433,67.267303 607.768433,31.371271 
	C597.263855,29.743528 597.220276,29.721287 592.666382,38.644604 
	C584.427612,54.788357 576.259399,70.968048 568.033997,87.118614 
	C565.573059,91.950539 563.019836,96.735413 560.118286,102.289513 
	C558.398071,99.893501 557.121521,98.227737 555.962463,96.483887 
	C541.687378,75.006378 527.445496,53.506817 513.133911,32.053684 
	C512.101135,30.505489 510.593048,29.274340 509.305939,27.895777 
	C508.772949,28.162106 508.239929,28.428434 507.706940,28.694765 
	C506.463837,65.668716 505.220734,102.642677 503.978302,139.596939 
	C507.926941,139.596939 511.034698,139.596939 513.417969,139.596939 
	C513.417969,129.867981 513.417969,120.415863 513.322632,110.030441 
M901.501770,30.803434 
	C896.065918,30.803434 890.630066,30.803434 885.280334,30.803434 
	C885.280334,67.405838 885.280334,103.481636 885.280334,139.152817 
	C899.538452,139.152817 913.517395,139.693710 927.440491,139.041229 
	C957.254211,137.644028 978.385986,114.819664 978.147034,85.026779 
	C977.929932,57.955540 962.426819,38.172562 935.769714,32.956322 
	C924.953430,30.839808 913.605591,31.439636 901.501770,30.803434 
M755.498108,57.031292 
	C760.727173,64.750351 765.839111,72.552513 771.235718,80.152611 
	C773.849976,83.834267 774.348999,86.593056 771.200134,90.615089 
	C760.629700,104.116920 750.568176,118.017647 740.340637,131.787064 
	C738.520142,134.237976 736.837158,136.791000 734.880859,139.597992 
	C746.618896,140.353745 746.633118,140.362152 752.221619,130.889221 
	C760.246582,117.286285 768.248413,103.669632 776.566223,89.538712 
	C777.896606,91.427673 778.955322,92.883354 779.965088,94.372223 
	C788.846130,107.466316 797.718323,120.566322 806.593140,133.664581 
	C811.151855,140.392654 814.408447,141.487167 822.679810,138.975433 
	C809.296387,119.312828 795.938354,99.687561 782.684631,80.215515 
	C795.359070,63.506088 807.377258,47.661804 819.918152,31.128405 
	C817.420166,30.991167 815.960876,31.048227 814.551819,30.808962 
	C809.421814,29.937841 806.369446,31.998499 804.079529,36.711967 
	C801.105347,42.833878 797.335693,48.570137 793.892883,54.463352 
	C789.732849,61.584377 785.556519,68.695885 781.106079,76.291504 
	C779.739136,74.401115 778.755798,73.111282 777.845703,71.771637 
	C770.078247,60.337772 761.766479,49.222588 754.777710,37.330223 
	C750.664734,30.331306 745.551025,30.066628 739.073608,31.244751 
	C739.037476,31.731197 738.872803,32.140236 739.010986,32.348194 
	C744.352173,40.389797 749.721191,48.412971 755.498108,57.031292 
M139.044861,54.414516 
	C140.513962,55.758022 141.878860,57.242092 143.469666,58.421417 
	C151.635086,64.474724 163.401291,64.970917 172.137146,59.723709 
	C180.797974,54.521549 186.040909,43.836029 184.608505,34.306004 
	C182.916138,23.046354 175.088959,14.309723 164.623291,11.998718 
	C153.716141,9.590230 142.870331,13.965409 136.885773,23.187986 
	C130.727570,32.678154 131.359161,44.023045 139.044861,54.414516 
M657.158813,95.693718 
	C657.858887,90.271942 660.801697,88.629135 666.261047,89.022148 
	C674.047485,89.582695 681.912354,89.372292 689.727356,89.069366 
	C693.172302,88.935852 694.724426,90.122238 695.869324,93.248016 
	C700.492310,105.869934 705.358398,118.402718 710.113342,130.976471 
	C713.671936,140.386475 713.657410,140.392654 723.750305,139.729523 
	C723.892639,139.720169 724.028259,139.608200 724.372314,139.449280 
	C724.053955,138.389679 723.792542,137.273544 723.388855,136.211487 
	C710.580261,102.509254 697.687439,68.838646 685.042542,35.075157 
	C683.725037,31.557308 681.973267,30.745834 678.543823,30.716692 
	C674.963684,30.686268 673.074524,31.430428 671.675476,35.198360 
	C661.213196,63.374912 650.437256,91.434990 639.753784,119.529335 
	C637.225342,126.178596 634.674866,132.819489 631.983765,139.858536 
	C633.893433,139.858536 635.252197,139.662231 636.534058,139.892883 
	C641.784973,140.837677 643.953918,138.641113 645.377563,133.481750 
	C648.814087,121.027771 653.074219,108.801064 657.158813,95.693718 
M1153.287842,63.756847 
	C1145.626465,85.149178 1137.965210,106.541512 1129.949097,128.924530 
	C1128.824463,126.510422 1128.240479,125.327118 1127.714844,124.118469 
	C1115.426636,95.870720 1103.148804,67.618462 1090.859741,39.371174 
	C1086.957153,30.401005 1086.944702,30.404224 1077.168213,30.851986 
	C1076.845703,30.866756 1076.529663,31.020937 1075.963135,31.179306 
	C1076.341431,32.258366 1076.645020,33.348362 1077.094727,34.374302 
	C1084.948242,52.290699 1092.782471,70.215675 1100.697754,88.104752 
	C1108.076782,104.781631 1115.516113,121.432129 1123.027466,138.049683 
	C1123.698853,139.534897 1125.095703,140.692200 1126.155518,142.001862 
	C1127.380005,140.675720 1129.065918,139.554550 1129.759766,137.992691 
	C1140.662231,113.452324 1151.414062,88.845108 1162.251465,64.275703 
	C1167.114746,53.250015 1172.090088,42.273766 1177.155884,30.959173 
	C1172.921631,30.959173 1169.284912,30.959173 1165.386108,30.959173 
	C1161.477783,41.693104 1157.583130,52.389370 1153.287842,63.756847 
M1010.822998,48.500721 
	C1010.822998,78.787613 1010.822998,109.074509 1010.822998,139.574600 
	C1026.795532,139.574600 1042.363525,139.574600 1057.893799,139.574600 
	C1057.893799,137.031082 1057.893799,134.758453 1057.893799,132.340424 
	C1045.574585,133.861237 1033.551880,135.345413 1021.395935,136.846069 
	C1021.395935,119.582108 1021.395935,102.488899 1021.395935,84.961090 
	C1032.994385,85.647606 1044.360596,86.320381 1055.752319,86.994667 
	C1055.752319,84.078064 1055.752319,81.672020 1055.752319,79.021729 
	C1044.140869,79.680161 1032.789062,80.323868 1021.514648,80.963188 
	C1021.514648,64.891670 1021.514648,49.503952 1021.514648,33.684944 
	C1033.717896,35.204483 1045.540039,36.676556 1057.502930,38.166164 
	C1057.502930,35.438534 1057.502930,33.228462 1057.502930,31.177584 
	C1041.760132,31.177584 1026.358765,31.177584 1010.822998,31.177584 
	C1010.822998,36.854721 1010.822998,42.177830 1010.822998,48.500721 
M388.889404,85.219360 
	C392.291779,86.261574 392.909882,83.401291 393.357574,81.424591 
	C393.608582,80.316299 392.363739,78.321762 391.237366,77.626862 
	C390.378326,77.096855 387.671356,77.686630 387.486816,78.294502 
	C386.957672,80.037415 387.245422,82.044960 387.329895,83.943237 
	C387.346283,84.311745 387.894897,84.656578 388.889404,85.219360 
M76.725487,108.263084 
	C77.372742,109.970390 77.673592,112.012405 78.839249,113.218826 
	C79.299911,113.695610 82.185661,112.709213 83.030167,111.645279 
	C83.659103,110.852905 83.127670,107.817657 82.505989,107.611443 
	C80.881371,107.072594 78.923660,107.537979 76.725487,108.263084 
M36.666676,152.988129 
	C35.820080,151.126938 35.141445,149.144836 33.970032,147.517456 
	C33.762371,147.228958 30.812252,148.081848 30.362730,149.007217 
	C29.777824,150.211273 30.000034,153.102448 30.626963,153.348068 
	C32.258900,153.987488 34.301327,153.579224 36.666676,152.988129 
M47.339424,148.129684 
	C48.641563,146.785400 50.305489,145.607361 51.042587,144.003418 
	C51.288685,143.467896 49.284069,141.116180 48.090088,140.919495 
	C46.883823,140.720795 44.189110,142.354599 44.267174,142.854370 
	C44.550865,144.670654 45.723221,146.348129 47.339424,148.129684 
M420.923462,50.025345 
	C423.996490,50.195274 426.298920,49.263115 425.536713,45.690521 
	C425.291931,44.543327 423.759460,43.076088 422.623627,42.882088 
	C421.501648,42.690449 419.158997,43.813862 419.076233,44.553379 
	C418.889343,46.222942 419.766663,48.011620 420.923462,50.025345 
M14.983144,150.857224 
	C15.211897,152.694580 15.109562,154.690948 15.869428,156.273254 
	C16.099957,156.753311 19.073938,156.572617 20.118488,155.793030 
	C20.924536,155.191437 21.254459,152.250519 20.795679,151.966660 
	C19.266508,151.020615 17.286783,150.802780 14.983144,150.857224 
M56.032433,133.822998 
	C57.440140,137.916809 60.090424,139.516037 62.084232,137.229889 
	C63.029346,136.146225 63.392830,133.258850 62.624786,132.223557 
	C60.426453,129.260345 58.089191,130.563019 56.032433,133.822998 
M398.160492,71.462120 
	C399.783661,70.563400 401.609985,69.869919 402.879211,68.613632 
	C403.175934,68.319939 401.877869,65.489441 400.776428,64.974083 
	C399.715759,64.477829 396.800934,65.299927 396.723846,65.834496 
	C396.478027,67.539116 397.173401,69.379440 398.160492,71.462120 
M406.508911,57.952679 
	C407.903351,58.602856 409.580933,60.063591 410.621368,59.700191 
	C411.953552,59.234890 413.706055,57.183350 413.561432,56.030598 
	C413.403229,54.769646 411.287079,53.754341 410.024200,52.631954 
	C408.729309,54.189060 407.434418,55.746166 406.508911,57.952679 
M454.800903,34.874439 
	C452.958221,34.935055 450.979889,34.637436 449.348328,35.255444 
	C448.795929,35.464676 448.520630,38.458916 449.203522,39.331112 
	C449.974518,40.315933 452.963623,41.059032 453.249878,40.660099 
	C454.284271,39.218338 454.588440,37.252640 454.800903,34.874439 
M66.988419,124.012260 
	C68.672943,124.643616 70.323914,125.521049 72.062202,125.758034 
	C72.591278,125.830154 74.065331,123.933464 73.880219,123.292923 
	C73.436142,121.756371 72.508942,119.510742 71.338486,119.199547 
	C68.389412,118.415466 66.756096,120.210724 66.988419,124.012260 
M435.708801,43.060661 
	C437.181580,41.971359 438.988953,41.103462 439.938660,39.668083 
	C440.254608,39.190529 438.617676,36.696186 437.414520,36.166439 
	C436.443542,35.738914 433.623871,36.889797 433.627899,37.321651 
	C433.645447,39.192097 434.398468,41.055641 435.708801,43.060661 
z"/>
<path fill="#FBFBFB" opacity="1.000000" stroke="none" 
	d="
M85.799835,93.091873 
	C63.144138,93.161415 40.488407,93.256111 17.832846,93.226074 
	C16.702478,93.224579 15.573544,92.140572 14.443939,91.560608 
	C15.708327,90.952660 16.969925,89.821617 18.237524,89.814850 
	C38.899628,89.704552 59.564312,89.588707 80.223862,89.843597 
	C85.192490,89.904900 87.550705,88.067245 90.212364,83.876419 
	C99.514481,69.230103 110.577484,56.035316 125.813324,46.445812 
	C127.407822,49.923859 128.839447,53.046642 130.382568,56.412636 
	C118.530098,65.436745 108.073929,75.803925 100.574669,89.518173 
	C141.411163,89.518173 181.641846,89.518173 223.762527,89.518173 
	C217.999847,82.263237 213.409088,75.484085 207.796402,69.695862 
	C202.067444,63.787739 195.334778,58.852875 188.783203,53.271839 
	C189.793213,50.501457 190.960159,47.300575 192.234497,43.805157 
	C203.228073,49.168350 211.958969,56.824303 219.460052,65.789101 
	C224.760971,72.124397 229.465393,78.987717 234.081299,85.853851 
	C236.090378,88.842339 238.276764,89.820419 241.821732,89.814934 
	C310.308411,89.708870 378.795258,89.724220 447.282013,89.800041 
	C449.174561,89.802132 452.934570,88.114075 451.764221,93.303329 
	C434.976105,93.303329 418.132599,94.013657 401.388733,93.029388 
	C391.780060,92.464554 386.480591,95.609337 381.760590,103.757874 
	C372.718445,119.368111 361.498962,133.429184 347.137054,144.698135 
	C319.729156,166.203537 287.272583,162.795288 262.623199,140.389557 
	C249.169998,128.160919 239.505890,112.922653 229.394455,98.086868 
	C226.767273,94.232185 223.937042,93.205704 219.573883,93.219208 
	C177.415894,93.349739 135.257324,93.288345 92.199150,93.105499 
	C89.466209,92.983437 87.633018,93.037659 85.799835,93.091873 
M256.362274,117.127464 
	C262.099030,123.126312 267.313965,129.758026 273.673584,135.001404 
	C290.505615,148.878983 309.548920,152.717285 329.436859,142.739777 
	C350.417511,132.214050 362.947906,113.211784 375.268494,93.664207 
	C329.836700,93.664207 285.086182,93.664207 239.463745,93.664207 
	C245.280304,101.724731 250.623199,109.128853 256.362274,117.127464 
z"/>
<path fill="#6EB974" opacity="1.000000" stroke="none" 
	d="
M513.370300,110.497093 
	C513.417969,120.415863 513.417969,129.867981 513.417969,139.596939 
	C511.034698,139.596939 507.926941,139.596939 503.978302,139.596939 
	C505.220734,102.642677 506.463837,65.668716 507.706940,28.694765 
	C508.239929,28.428434 508.772949,28.162106 509.305939,27.895777 
	C510.593048,29.274340 512.101135,30.505489 513.133911,32.053684 
	C527.445496,53.506817 541.687378,75.006378 555.962463,96.483887 
	C557.121521,98.227737 558.398071,99.893501 560.118286,102.289513 
	C563.019836,96.735413 565.573059,91.950539 568.033997,87.118614 
	C576.259399,70.968048 584.427612,54.788357 592.666382,38.644604 
	C597.220276,29.721287 597.263855,29.743528 607.768433,31.371271 
	C607.768433,67.267303 607.768433,103.202454 607.768433,139.502014 
	C604.491028,139.502014 601.255676,139.502014 597.553467,139.502014 
	C597.553467,106.599442 597.553467,73.668800 597.553467,40.738159 
	C597.177734,40.593616 596.802002,40.449074 596.426270,40.304531 
	C595.615295,41.740829 594.754150,43.151329 594.000977,44.617302 
	C583.133911,65.768471 572.292664,86.932915 561.418030,108.080170 
	C558.409363,113.930901 555.619629,114.050308 551.907532,108.462227 
	C539.573792,89.895241 527.281616,71.300697 514.958252,52.726841 
	C514.000916,51.283905 512.925110,49.919598 511.060150,47.360229 
	C511.849884,69.235382 512.586243,89.632912 513.370300,110.497093 
z"/>
<path fill="#F3F3F3" opacity="1.000000" stroke="none" 
	d="
M902.000732,30.803448 
	C913.605591,31.439636 924.953430,30.839808 935.769714,32.956322 
	C962.426819,38.172562 977.929932,57.955540 978.147034,85.026779 
	C978.385986,114.819664 957.254211,137.644028 927.440491,139.041229 
	C913.517395,139.693710 899.538452,139.152817 885.280334,139.152817 
	C885.280334,103.481636 885.280334,67.405838 885.280334,30.803434 
	C890.630066,30.803434 896.065918,30.803434 902.000732,30.803448 
M895.544617,103.499771 
	C895.544617,114.234528 895.544617,124.969292 895.544617,135.650253 
	C905.926819,135.650253 915.766357,136.247681 925.508057,135.524918 
	C945.307556,134.055908 958.955933,122.736435 964.109558,103.538269 
	C967.614807,90.480873 967.367004,77.246025 963.311218,64.202408 
	C958.909790,50.047276 949.357483,40.864933 935.392944,36.768501 
	C922.477600,32.979858 909.103149,34.854027 895.544495,34.582790 
	C895.544495,57.624699 895.544495,80.062225 895.544617,103.499771 
z"/>
<path fill="#6FBA75" opacity="1.000000" stroke="none" 
	d="
M755.292297,56.734947 
	C749.721191,48.412971 744.352173,40.389797 739.010986,32.348194 
	C738.872803,32.140236 739.037476,31.731197 739.073608,31.244751 
	C745.551025,30.066628 750.664734,30.331306 754.777710,37.330223 
	C761.766479,49.222588 770.078247,60.337772 777.845703,71.771637 
	C778.755798,73.111282 779.739136,74.401115 781.106079,76.291504 
	C785.556519,68.695885 789.732849,61.584377 793.892883,54.463352 
	C797.335693,48.570137 801.105347,42.833878 804.079529,36.711967 
	C806.369446,31.998499 809.421814,29.937841 814.551819,30.808962 
	C815.960876,31.048227 817.420166,30.991167 819.918152,31.128405 
	C807.377258,47.661804 795.359070,63.506088 782.684631,80.215515 
	C795.938354,99.687561 809.296387,119.312828 822.679810,138.975433 
	C814.408447,141.487167 811.151855,140.392654 806.593140,133.664581 
	C797.718323,120.566322 788.846130,107.466316 779.965088,94.372223 
	C778.955322,92.883354 777.896606,91.427673 776.566223,89.538712 
	C768.248413,103.669632 760.246582,117.286285 752.221619,130.889221 
	C746.633118,140.362152 746.618896,140.353745 734.880859,139.597992 
	C736.837158,136.791000 738.520142,134.237976 740.340637,131.787064 
	C750.568176,118.017647 760.629700,104.116920 771.200134,90.615089 
	C774.348999,86.593056 773.849976,83.834267 771.235718,80.152611 
	C765.839111,72.552513 760.727173,64.750351 755.292297,56.734947 
z"/>
<path fill="#FDFDFD" opacity="1.000000" stroke="none" 
	d="
M138.818787,54.131432 
	C131.359161,44.023045 130.727570,32.678154 136.885773,23.187986 
	C142.870331,13.965409 153.716141,9.590230 164.623291,11.998718 
	C175.088959,14.309723 182.916138,23.046354 184.608505,34.306004 
	C186.040909,43.836029 180.797974,54.521549 172.137146,59.723709 
	C163.401291,64.970917 151.635086,64.474724 143.469666,58.421417 
	C141.878860,57.242092 140.513962,55.758022 138.818787,54.131432 
z"/>
<path fill="#6FBB76" opacity="1.000000" stroke="none" 
	d="
M657.080566,96.088211 
	C653.074219,108.801064 648.814087,121.027771 645.377563,133.481750 
	C643.953918,138.641113 641.784973,140.837677 636.534058,139.892883 
	C635.252197,139.662231 633.893433,139.858536 631.983765,139.858536 
	C634.674866,132.819489 637.225342,126.178596 639.753784,119.529335 
	C650.437256,91.434990 661.213196,63.374912 671.675476,35.198360 
	C673.074524,31.430428 674.963684,30.686268 678.543823,30.716692 
	C681.973267,30.745834 683.725037,31.557308 685.042542,35.075157 
	C697.687439,68.838646 710.580261,102.509254 723.388855,136.211487 
	C723.792542,137.273544 724.053955,138.389679 724.372314,139.449280 
	C724.028259,139.608200 723.892639,139.720169 723.750305,139.729523 
	C713.657410,140.392654 713.671936,140.386475 710.113342,130.976471 
	C705.358398,118.402718 700.492310,105.869934 695.869324,93.248016 
	C694.724426,90.122238 693.172302,88.935852 689.727356,89.069366 
	C681.912354,89.372292 674.047485,89.582695 666.261047,89.022148 
	C660.801697,88.629135 657.858887,90.271942 657.080566,96.088211 
M677.496704,85.603416 
	C682.523865,85.603416 687.550964,85.603416 693.441284,85.603416 
	C687.305176,69.361481 681.574890,54.193993 675.844666,39.026501 
	C675.435486,39.087597 675.026367,39.148693 674.617188,39.209785 
	C669.830566,54.403854 665.043945,69.597916 660.001831,85.602966 
	C666.274231,85.602966 671.387573,85.602966 677.496704,85.603416 
z"/>
<path fill="#F9F9F9" opacity="1.000000" stroke="none" 
	d="
M1153.488159,63.421242 
	C1157.583130,52.389370 1161.477783,41.693104 1165.386108,30.959173 
	C1169.284912,30.959173 1172.921631,30.959173 1177.155884,30.959173 
	C1172.090088,42.273766 1167.114746,53.250015 1162.251465,64.275703 
	C1151.414062,88.845108 1140.662231,113.452324 1129.759766,137.992691 
	C1129.065918,139.554550 1127.380005,140.675720 1126.155518,142.001831 
	C1125.095703,140.692200 1123.698853,139.534897 1123.027466,138.049683 
	C1115.516113,121.432129 1108.076782,104.781631 1100.697754,88.104752 
	C1092.782471,70.215675 1084.948242,52.290699 1077.094727,34.374302 
	C1076.645020,33.348362 1076.341431,32.258366 1075.963135,31.179306 
	C1076.529663,31.020937 1076.845703,30.866756 1077.168213,30.851986 
	C1086.944702,30.404224 1086.957153,30.401005 1090.859741,39.371174 
	C1103.148804,67.618462 1115.426636,95.870720 1127.714844,124.118469 
	C1128.240479,125.327118 1128.824463,126.510422 1129.949097,128.924530 
	C1137.965210,106.541512 1145.626465,85.149178 1153.488159,63.421242 
z"/>
<path fill="#FAFAFA" opacity="1.000000" stroke="none" 
	d="
M1010.822998,48.000832 
	C1010.822998,42.177830 1010.822998,36.854721 1010.822998,31.177584 
	C1026.358765,31.177584 1041.760132,31.177584 1057.502930,31.177584 
	C1057.502930,33.228462 1057.502930,35.438534 1057.502930,38.166164 
	C1045.540039,36.676556 1033.717896,35.204483 1021.514648,33.684944 
	C1021.514648,49.503952 1021.514648,64.891670 1021.514648,80.963188 
	C1032.789062,80.323868 1044.140869,79.680161 1055.752319,79.021729 
	C1055.752319,81.672020 1055.752319,84.078064 1055.752319,86.994667 
	C1044.360596,86.320381 1032.994385,85.647606 1021.395935,84.961090 
	C1021.395935,102.488899 1021.395935,119.582108 1021.395935,136.846069 
	C1033.551880,135.345413 1045.574585,133.861237 1057.893799,132.340424 
	C1057.893799,134.758453 1057.893799,137.031082 1057.893799,139.574600 
	C1042.363525,139.574600 1026.795532,139.574600 1010.822998,139.574600 
	C1010.822998,109.074509 1010.822998,78.787613 1010.822998,48.000832 
z"/>
<path fill="#ECECEC" opacity="1.000000" stroke="none" 
	d="
M388.543701,85.115845 
	C387.894897,84.656578 387.346283,84.311745 387.329895,83.943237 
	C387.245422,82.044960 386.957672,80.037415 387.486816,78.294502 
	C387.671356,77.686630 390.378326,77.096855 391.237366,77.626862 
	C392.363739,78.321762 393.608582,80.316299 393.357574,81.424591 
	C392.909882,83.401291 392.291779,86.261574 388.543701,85.115845 
z"/>
<path fill="#E4E4E4" opacity="1.000000" stroke="none" 
	d="
M85.994835,93.413780 
	C87.633018,93.037659 89.466209,92.983437 91.751678,93.011490 
	C92.109550,93.397652 91.975571,93.695389 91.927147,94.006432 
	C91.619446,95.983124 91.576935,98.060219 90.859917,99.871872 
	C90.683861,100.316719 87.308289,100.261559 87.148163,99.813225 
	C86.470345,97.915375 86.450302,95.782593 85.994835,93.413780 
z"/>
<path fill="#E9E9E9" opacity="1.000000" stroke="none" 
	d="
M76.912125,107.933022 
	C78.923660,107.537979 80.881371,107.072594 82.505989,107.611443 
	C83.127670,107.817657 83.659103,110.852905 83.030167,111.645279 
	C82.185661,112.709213 79.299911,113.695610 78.839249,113.218826 
	C77.673592,112.012405 77.372742,109.970390 76.912125,107.933022 
z"/>
<path fill="#F0F0F0" opacity="1.000000" stroke="none" 
	d="
M36.423332,153.288513 
	C34.301327,153.579224 32.258900,153.987488 30.626963,153.348068 
	C30.000034,153.102448 29.777824,150.211273 30.362730,149.007217 
	C30.812252,148.081848 33.762371,147.228958 33.970032,147.517456 
	C35.141445,149.144836 35.820080,151.126938 36.423332,153.288513 
z"/>
<path fill="#F1F1F1" opacity="1.000000" stroke="none" 
	d="
M46.949936,148.103821 
	C45.723221,146.348129 44.550865,144.670654 44.267174,142.854370 
	C44.189110,142.354599 46.883823,140.720795 48.090088,140.919495 
	C49.284069,141.116180 51.288685,143.467896 51.042587,144.003418 
	C50.305489,145.607361 48.641563,146.785400 46.949936,148.103821 
z"/>
<path fill="#F1F1F1" opacity="1.000000" stroke="none" 
	d="
M420.567261,49.888596 
	C419.766663,48.011620 418.889343,46.222942 419.076233,44.553379 
	C419.158997,43.813862 421.501648,42.690449 422.623627,42.882088 
	C423.759460,43.076088 425.291931,44.543327 425.536713,45.690521 
	C426.298920,49.263115 423.996490,50.195274 420.567261,49.888596 
z"/>
<path fill="#F0F0F0" opacity="1.000000" stroke="none" 
	d="
M15.231436,150.581543 
	C17.286783,150.802780 19.266508,151.020615 20.795679,151.966660 
	C21.254459,152.250519 20.924536,155.191437 20.118488,155.793030 
	C19.073938,156.572617 16.099957,156.753311 15.869428,156.273254 
	C15.109562,154.690948 15.211897,152.694580 15.231436,150.581543 
z"/>
<path fill="#F3F3F3" opacity="1.000000" stroke="none" 
	d="
M56.144493,133.468277 
	C58.089191,130.563019 60.426453,129.260345 62.624786,132.223557 
	C63.392830,133.258850 63.029346,136.146225 62.084232,137.229889 
	C60.090424,139.516037 57.440140,137.916809 56.144493,133.468277 
z"/>
<path fill="#ECECEC" opacity="1.000000" stroke="none" 
	d="
M397.832855,71.314735 
	C397.173401,69.379440 396.478027,67.539116 396.723846,65.834496 
	C396.800934,65.299927 399.715759,64.477829 400.776428,64.974083 
	C401.877869,65.489441 403.175934,68.319939 402.879211,68.613632 
	C401.609985,69.869919 399.783661,70.563400 397.832855,71.314735 
z"/>
<path fill="#F0F0F0" opacity="1.000000" stroke="none" 
	d="
M406.324219,57.627975 
	C407.434418,55.746166 408.729309,54.189060 410.024231,52.631966 
	C411.287079,53.754341 413.403229,54.769646 413.561432,56.030598 
	C413.706055,57.183350 411.953552,59.234890 410.621368,59.700191 
	C409.580933,60.063591 407.903351,58.602856 406.324219,57.627975 
z"/>
<path fill="#EAEAEA" opacity="1.000000" stroke="none" 
	d="
M454.984619,35.179592 
	C454.588440,37.252640 454.284271,39.218338 453.249878,40.660099 
	C452.963623,41.059032 449.974518,40.315933 449.203522,39.331112 
	C448.520630,38.458916 448.795929,35.464676 449.348328,35.255444 
	C450.979889,34.637436 452.958221,34.935055 454.984619,35.179592 
z"/>
<path fill="#F3F3F3" opacity="1.000000" stroke="none" 
	d="
M66.885681,123.664047 
	C66.756096,120.210724 68.389412,118.415466 71.338486,119.199547 
	C72.508942,119.510742 73.436142,121.756371 73.880219,123.292923 
	C74.065331,123.933464 72.591278,125.830154 72.062202,125.758034 
	C70.323914,125.521049 68.672943,124.643616 66.885681,123.664047 
z"/>
<path fill="#F2F2F2" opacity="1.000000" stroke="none" 
	d="
M435.296417,42.991180 
	C434.398468,41.055641 433.645447,39.192097 433.627899,37.321651 
	C433.623871,36.889797 436.443542,35.738914 437.414520,36.166439 
	C438.617676,36.696186 440.254608,39.190529 439.938660,39.668083 
	C438.988953,41.103462 437.181580,41.971359 435.296417,42.991180 
z"/>
<path fill="#040404" opacity="1.000000" stroke="none" 
	d="
M256.164185,116.830223 
	C250.623199,109.128853 245.280304,101.724731 239.463745,93.664207 
	C285.086182,93.664207 329.836700,93.664207 375.268494,93.664207 
	C362.947906,113.211784 350.417511,132.214050 329.436859,142.739777 
	C309.548920,152.717285 290.505615,148.878983 273.673584,135.001404 
	C267.313965,129.758026 262.099030,123.126312 256.164185,116.830223 
z"/>
<path fill="#010101" opacity="1.000000" stroke="none" 
	d="
M895.544556,102.999763 
	C895.544495,80.062225 895.544495,57.624699 895.544495,34.582790 
	C909.103149,34.854027 922.477600,32.979858 935.392944,36.768501 
	C949.357483,40.864933 958.909790,50.047276 963.311218,64.202408 
	C967.367004,77.246025 967.614807,90.480873 964.109558,103.538269 
	C958.955933,122.736435 945.307556,134.055908 925.508057,135.524918 
	C915.766357,136.247681 905.926819,135.650253 895.544617,135.650253 
	C895.544617,124.969292 895.544617,114.234528 895.544556,102.999763 
z"/>
<path fill="#040704" opacity="1.000000" stroke="none" 
	d="
M676.998779,85.603195 
	C671.387573,85.602966 666.274231,85.602966 660.001831,85.602966 
	C665.043945,69.597916 669.830566,54.403854 674.617188,39.209785 
	C675.026367,39.148693 675.435486,39.087597 675.844666,39.026501 
	C681.574890,54.193993 687.305176,69.361481 693.441284,85.603416 
	C687.550964,85.603416 682.523865,85.603416 676.998779,85.603195 
z"/>
</svg>