<svg version="1.1" id="Layer_1" xmlns="http://www.w3.org/2000/svg" xmlns:xlink="http://www.w3.org/1999/xlink" x="0px" y="0px"
	 width="100%" viewBox="0 0 475 172" enable-background="new 0 0 475 172" xml:space="preserve">
<path fill="#010101" opacity="0" stroke="none" 
	d="
M296.000000,173.000000 
	C197.333374,173.000000 99.166740,173.000000 1.000079,173.000000 
	C1.000053,115.666725 1.000053,58.333447 1.000026,1.000125 
	C159.333221,1.000083 317.666443,1.000083 475.999756,1.000042 
	C475.999817,58.333202 475.999817,115.666405 475.999908,172.999802 
	C416.166656,173.000000 356.333344,173.000000 296.000000,173.000000 
M95.255539,96.806519 
	C95.255539,96.806519 95.157768,96.364975 96.072975,96.309830 
	C138.722610,96.306885 181.372314,96.276474 224.021652,96.384338 
	C226.093781,96.389580 228.770157,97.017365 230.104675,98.387878 
	C232.740829,101.095131 234.963028,104.347641 236.775620,107.689690 
	C244.059464,121.119690 253.422546,132.942902 264.577148,143.257889 
	C288.977753,165.821869 321.778442,169.323959 349.422150,147.482346 
	C365.522766,134.761017 376.949463,118.222641 387.623901,101.111786 
	C389.867950,97.514648 392.014954,96.147507 396.204498,96.201691 
	C414.194305,96.434372 432.188843,96.304726 450.181671,96.296082 
	C452.408051,96.295013 455.239685,96.808838 453.547668,92.736816 
	C451.619019,92.736816 449.798889,92.736816 447.978729,92.736816 
	C380.172455,92.736816 312.366180,92.736862 244.559906,92.736420 
	C243.227127,92.736412 241.865814,92.894867 240.571564,92.670013 
	C239.706146,92.519669 238.663879,92.019325 238.165390,91.336426 
	C233.190231,84.520882 228.648743,77.359879 223.325745,70.834007 
	C215.630035,61.399273 206.630035,53.357372 195.205872,47.797714 
	C193.912582,51.407112 192.764313,54.611824 191.489914,58.168499 
	C205.939301,66.548683 216.591064,78.512733 225.708115,92.395256 
	C184.717239,92.395256 144.364807,92.395256 103.306290,92.395256 
	C112.027306,79.934448 121.347389,69.023201 133.436737,60.536919 
	C131.866058,57.137054 130.370697,53.900227 128.819321,50.542137 
	C127.951164,51.066761 127.376640,51.391724 126.824379,51.750919 
	C112.409966,61.126389 102.139221,74.442368 92.572487,88.317467 
	C90.164719,91.809578 87.662163,92.867775 83.597450,92.828918 
	C62.774326,92.629890 41.948105,92.704407 21.123707,92.818497 
	C19.888811,92.825256 18.660362,94.008850 17.428915,94.644829 
	C18.411472,95.196579 19.393703,96.228928 20.376633,96.229584 
	C43.192970,96.244949 66.009384,96.148415 89.272911,96.688293 
	C89.489792,98.732132 89.438599,100.873398 90.120049,102.748405 
	C90.281807,103.193489 93.914459,103.215881 94.190315,102.619087 
	C94.934311,101.009468 94.729195,98.961143 95.255539,96.806519 
M145.146713,61.414665 
	C146.225845,62.187599 147.255997,63.042591 148.391800,63.720596 
	C158.175674,69.560951 171.078506,68.210403 179.363297,60.512341 
	C187.996277,52.490746 190.219254,39.962929 184.872055,29.467278 
	C179.662613,19.242020 168.296066,13.623507 156.930420,15.846662 
	C146.742355,17.839476 139.865814,23.892933 136.914886,33.800777 
	C133.785614,44.307476 136.526764,53.459038 145.146713,61.414665 
M79.670120,114.688370 
	C81.492821,115.142128 83.351540,115.991699 85.118317,115.830910 
	C85.721359,115.776024 86.794472,112.921074 86.382919,111.820251 
	C85.929779,110.608185 84.015121,109.942528 82.737167,109.038826 
	C81.582016,110.714012 80.426865,112.389198 79.670120,114.688370 
M39.052979,151.690002 
	C37.175797,151.666290 35.201500,151.318573 33.485573,151.832870 
	C33.021473,151.971970 32.761494,155.109528 33.466854,156.159012 
	C34.127026,157.141251 37.178219,157.895828 37.460400,157.506439 
	C38.505936,156.063766 38.842075,154.107010 39.052979,151.690002 
M390.792267,81.183350 
	C388.439972,82.825249 386.395264,84.713715 389.365845,87.355980 
	C390.250488,88.142845 392.314911,88.440193 393.378998,87.954521 
	C394.456757,87.462616 395.874237,85.176300 395.548950,84.636604 
	C394.659515,83.160843 392.930878,82.190865 390.792267,81.183350 
M53.819752,145.678818 
	C51.977432,145.263809 50.112999,144.526596 48.307674,144.650513 
	C47.830578,144.683258 46.876797,147.647537 47.344143,148.761215 
	C47.803360,149.855530 50.545475,151.223297 50.968311,150.874390 
	C52.328175,149.752319 53.079498,147.892761 53.819752,145.678818 
M401.575012,75.817070 
	C404.647583,74.915825 406.230682,73.096016 404.281891,70.078476 
	C403.675232,69.139137 401.695312,68.385368 400.610168,68.647659 
	C399.454651,68.926949 397.637115,70.794830 397.832703,71.468575 
	C398.291321,73.048279 399.779755,74.329010 401.575012,75.817070 
M414.930359,62.555408 
	C414.531067,60.739628 414.442657,58.739983 413.543610,57.219757 
	C413.272858,56.761951 410.409271,57.209866 409.365997,58.038895 
	C408.558472,58.680584 408.346619,61.656456 408.537659,61.724667 
	C410.401520,62.390167 412.405884,62.662052 414.930359,62.555408 
M66.456238,136.209457 
	C64.689072,135.505722 62.934536,134.377533 61.148006,134.324341 
	C60.507042,134.305283 59.014771,137.086823 59.317501,138.211670 
	C59.638615,139.404785 62.127987,141.195206 62.794125,140.878952 
	C64.383224,140.124512 65.456360,138.283310 66.456238,136.209457 
M23.906910,158.136063 
	C24.596107,154.772675 23.759468,152.190338 19.841326,152.941605 
	C18.661154,153.167877 16.864767,156.129547 17.215738,157.258148 
	C18.202761,160.432053 20.720697,160.854889 23.906910,158.136063 
M420.879395,51.924747 
	C422.626160,52.448860 424.368774,53.280510 426.122314,53.304314 
	C426.629486,53.311199 427.927551,50.593491 427.524902,49.839005 
	C426.816650,48.511925 425.077423,47.735077 423.769928,46.727810 
	C422.716003,48.233868 421.662079,49.739922 420.879395,51.924747 
M457.474152,40.158169 
	C455.767334,39.466167 454.068512,38.337593 452.349609,38.306095 
	C451.700256,38.294197 450.256958,41.002651 450.537018,42.134022 
	C450.825531,43.299393 453.293640,45.088451 453.892273,44.786846 
	C455.437408,44.008366 456.477142,42.226707 457.474152,40.158169 
M72.854546,121.967590 
	C71.814552,123.270050 70.415092,124.447289 69.897957,125.931877 
	C69.666359,126.596756 71.170166,128.678162 71.944794,128.710312 
	C73.495941,128.774673 75.908478,128.331863 76.501167,127.276276 
	C78.010841,124.587570 76.629562,122.606033 72.854546,121.967590 
M442.132507,43.583927 
	C440.687897,42.378990 439.363342,40.917858 437.715820,40.145901 
	C437.293976,39.948238 435.084229,41.915024 435.066498,42.911827 
	C435.042725,44.247375 436.537323,46.814991 437.056732,46.735699 
	C438.817810,46.466888 440.436462,45.265232 442.132507,43.583927 
z"/>
<path fill="#FBFBFB" opacity="1.000000" stroke="none" 
	d="
M88.825783,96.072578 
	C66.009384,96.148415 43.192970,96.244949 20.376633,96.229584 
	C19.393703,96.228928 18.411472,95.196579 17.428913,94.644829 
	C18.660362,94.008850 19.888811,92.825256 21.123707,92.818497 
	C41.948105,92.704407 62.774326,92.629890 83.597450,92.828918 
	C87.662163,92.867775 90.164719,91.809578 92.572487,88.317467 
	C102.139221,74.442368 112.409966,61.126389 126.824379,51.750919 
	C127.376640,51.391724 127.951164,51.066761 128.819321,50.542137 
	C130.370697,53.900227 131.866058,57.137054 133.436737,60.536919 
	C121.347389,69.023201 112.027306,79.934448 103.306290,92.395256 
	C144.364807,92.395256 184.717239,92.395256 225.708115,92.395256 
	C216.591064,78.512733 205.939301,66.548683 191.489914,58.168499 
	C192.764313,54.611824 193.912582,51.407112 195.205872,47.797714 
	C206.630035,53.357372 215.630035,61.399273 223.325745,70.834007 
	C228.648743,77.359879 233.190231,84.520882 238.165390,91.336426 
	C238.663879,92.019325 239.706146,92.519669 240.571564,92.670013 
	C241.865814,92.894867 243.227127,92.736412 244.559906,92.736420 
	C312.366180,92.736862 380.172455,92.736816 447.978729,92.736816 
	C449.798889,92.736816 451.619019,92.736816 453.547668,92.736816 
	C455.239685,96.808838 452.408051,96.295013 450.181671,96.296082 
	C432.188843,96.304726 414.194305,96.434372 396.204498,96.201691 
	C392.014954,96.147507 389.867950,97.514648 387.623901,101.111786 
	C376.949463,118.222641 365.522766,134.761017 349.422150,147.482346 
	C321.778442,169.323959 288.977753,165.821869 264.577148,143.257889 
	C253.422546,132.942902 244.059464,121.119690 236.775620,107.689690 
	C234.963028,104.347641 232.740829,101.095131 230.104675,98.387878 
	C228.770157,97.017365 226.093781,96.389580 224.021652,96.384338 
	C181.372314,96.276474 138.722610,96.306885 95.335426,96.184250 
	C94.386551,96.034286 94.175217,96.009903 93.535568,95.971657 
	C91.680092,95.996056 90.252937,96.034317 88.825783,96.072578 
M372.649994,104.119995 
	C374.098938,101.648010 375.547882,99.176025 377.056305,96.602585 
	C331.744873,96.602585 287.073242,96.602585 241.758240,96.602585 
	C252.233582,112.125603 262.046021,127.383736 276.476807,138.819580 
	C296.374451,154.587692 319.183136,155.161621 340.051422,140.523270 
	C353.523468,131.073105 363.099579,118.085808 372.649994,104.119995 
z"/>
<path fill="#FDFDFD" opacity="1.000000" stroke="none" 
	d="
M144.865112,61.187004 
	C136.526764,53.459038 133.785614,44.307476 136.914886,33.800777 
	C139.865814,23.892933 146.742355,17.839476 156.930420,15.846662 
	C168.296066,13.623507 179.662613,19.242020 184.872055,29.467278 
	C190.219254,39.962929 187.996277,52.490746 179.363297,60.512341 
	C171.078506,68.210403 158.175674,69.560951 148.391800,63.720596 
	C147.255997,63.042591 146.225845,62.187599 144.865112,61.187004 
z"/>
<path fill="#E9E9E9" opacity="1.000000" stroke="none" 
	d="
M79.470917,114.376373 
	C80.426865,112.389198 81.582016,110.714012 82.737167,109.038826 
	C84.015121,109.942528 85.929779,110.608185 86.382919,111.820251 
	C86.794472,112.921074 85.721359,115.776024 85.118317,115.830910 
	C83.351540,115.991699 81.492821,115.142128 79.470917,114.376373 
z"/>
<path fill="#EDEDED" opacity="1.000000" stroke="none" 
	d="
M89.049347,96.380432 
	C90.252937,96.034317 91.680092,95.996056 93.494812,96.264008 
	C94.221825,96.742462 94.561279,96.914688 94.900726,97.086922 
	C94.729195,98.961143 94.934311,101.009468 94.190315,102.619087 
	C93.914459,103.215881 90.281807,103.193489 90.120049,102.748405 
	C89.438599,100.873398 89.489792,98.732132 89.049347,96.380432 
z"/>
<path fill="#F0F0F0" opacity="1.000000" stroke="none" 
	d="
M39.248856,152.016693 
	C38.842075,154.107010 38.505936,156.063766 37.460400,157.506439 
	C37.178219,157.895828 34.127026,157.141251 33.466854,156.159012 
	C32.761494,155.109528 33.021473,151.971970 33.485573,151.832870 
	C35.201500,151.318573 37.175797,151.666290 39.248856,152.016693 
z"/>
<path fill="#ECECEC" opacity="1.000000" stroke="none" 
	d="
M391.163422,81.101967 
	C392.930878,82.190865 394.659515,83.160843 395.548950,84.636604 
	C395.874237,85.176300 394.456757,87.462616 393.378998,87.954521 
	C392.314911,88.440193 390.250488,88.142845 389.365845,87.355980 
	C386.395264,84.713715 388.439972,82.825249 391.163422,81.101967 
z"/>
<path fill="#F1F1F1" opacity="1.000000" stroke="none" 
	d="
M53.942635,145.998230 
	C53.079498,147.892761 52.328175,149.752319 50.968311,150.874390 
	C50.545475,151.223297 47.803360,149.855530 47.344143,148.761215 
	C46.876797,147.647537 47.830578,144.683258 48.307674,144.650513 
	C50.112999,144.526596 51.977432,145.263809 53.942635,145.998230 
z"/>
<path fill="#ECECEC" opacity="1.000000" stroke="none" 
	d="
M401.213135,75.773918 
	C399.779755,74.329010 398.291321,73.048279 397.832703,71.468575 
	C397.637115,70.794830 399.454651,68.926949 400.610168,68.647659 
	C401.695312,68.385368 403.675232,69.139137 404.281891,70.078476 
	C406.230682,73.096016 404.647583,74.915825 401.213135,75.773918 
z"/>
<path fill="#F0F0F0" opacity="1.000000" stroke="none" 
	d="
M414.650330,62.800697 
	C412.405884,62.662052 410.401520,62.390167 408.537659,61.724667 
	C408.346619,61.656456 408.558472,58.680584 409.365997,58.038895 
	C410.409271,57.209866 413.272858,56.761951 413.543610,57.219757 
	C414.442657,58.739983 414.531067,60.739628 414.650330,62.800697 
z"/>
<path fill="#F3F3F3" opacity="1.000000" stroke="none" 
	d="
M66.597054,136.545227 
	C65.456360,138.283310 64.383224,140.124512 62.794125,140.878952 
	C62.127987,141.195206 59.638615,139.404785 59.317501,138.211670 
	C59.014771,137.086823 60.507042,134.305283 61.148006,134.324341 
	C62.934536,134.377533 64.689072,135.505722 66.597054,136.545227 
z"/>
<path fill="#F0F0F0" opacity="1.000000" stroke="none" 
	d="
M23.678898,158.465454 
	C20.720697,160.854889 18.202761,160.432053 17.215738,157.258148 
	C16.864767,156.129547 18.661154,153.167877 19.841326,152.941605 
	C23.759468,152.190338 24.596107,154.772675 23.678898,158.465454 
z"/>
<path fill="#F1F1F1" opacity="1.000000" stroke="none" 
	d="
M420.743774,51.585365 
	C421.662079,49.739922 422.716003,48.233868 423.769928,46.727810 
	C425.077423,47.735077 426.816650,48.511925 427.524902,49.839005 
	C427.927551,50.593491 426.629486,53.311199 426.122314,53.304314 
	C424.368774,53.280510 422.626160,52.448860 420.743774,51.585365 
z"/>
<path fill="#EAEAEA" opacity="1.000000" stroke="none" 
	d="
M457.596436,40.501957 
	C456.477142,42.226707 455.437408,44.008366 453.892273,44.786846 
	C453.293640,45.088451 450.825531,43.299393 450.537018,42.134022 
	C450.256958,41.002651 451.700256,38.294197 452.349609,38.306095 
	C454.068512,38.337593 455.767334,39.466167 457.596436,40.501957 
z"/>
<path fill="#F3F3F3" opacity="1.000000" stroke="none" 
	d="
M73.236084,121.929550 
	C76.629562,122.606033 78.010841,124.587570 76.501167,127.276276 
	C75.908478,128.331863 73.495941,128.774673 71.944794,128.710312 
	C71.170166,128.678162 69.666359,126.596756 69.897957,125.931877 
	C70.415092,124.447289 71.814552,123.270050 73.236084,121.929550 
z"/>
<path fill="#F2F2F2" opacity="1.000000" stroke="none" 
	d="
M442.121033,44.001953 
	C440.436462,45.265232 438.817810,46.466888 437.056732,46.735699 
	C436.537323,46.814991 435.042725,44.247375 435.066498,42.911827 
	C435.084229,41.915024 437.293976,39.948238 437.715820,40.145901 
	C439.363342,40.917858 440.687897,42.378990 442.121033,44.001953 
z"/>
<path fill="#616161" opacity="1.000000" stroke="none" 
	d="
M95.078140,96.946716 
	C94.561279,96.914688 94.221825,96.742462 93.923126,96.277878 
	C94.175217,96.009903 94.386551,96.034286 94.877823,96.211823 
	C95.157768,96.364975 95.255539,96.806519 95.078140,96.946716 
z"/>
<path fill="#040404" opacity="0" stroke="none" 
	d="
M372.429077,104.408981 
	C363.099579,118.085808 353.523468,131.073105 340.051422,140.523270 
	C319.183136,155.161621 296.374451,154.587692 276.476807,138.819580 
	C262.046021,127.383736 252.233582,112.125603 241.758240,96.602585 
	C287.073242,96.602585 331.744873,96.602585 377.056305,96.602585 
	C375.547882,99.176025 374.098938,101.648010 372.429077,104.408981 
z"/>
</svg>