<svg version="1.1" id="Layer_1" xmlns="http://www.w3.org/2000/svg" xmlns:xlink="http://www.w3.org/1999/xlink" x="0px" y="0px"
	 width="100%" viewBox="0 0 697 135" enable-background="new 0 0 697 135" xml:space="preserve">
<path fill="#010101" opacity="0" stroke="none" 
	d="
M509.000000,136.000000 
	C339.333344,136.000000 170.166672,136.000000 1.000000,136.000000 
	C1.000000,91.000000 1.000000,46.000000 1.000000,1.000000 
	C233.333328,1.000000 465.666656,1.000000 698.000000,1.000000 
	C698.000000,46.000000 698.000000,91.000000 698.000000,136.000000 
	C635.166687,136.000000 572.333313,136.000000 509.000000,136.000000 
M22.776859,73.634178 
	C22.190166,60.005836 21.603472,46.377499 21.016779,32.749157 
	C22.712725,33.534046 23.418493,34.436348 24.065710,35.378860 
	C36.773338,53.884453 49.473331,72.395287 62.176926,90.903648 
	C65.557945,95.829590 68.454903,95.706940 71.199921,90.519455 
	C82.238182,69.659523 93.268616,48.795429 104.321480,27.943226 
	C104.971115,26.717636 105.792252,25.582956 106.533577,24.405970 
	C106.867836,24.484909 107.202087,24.563848 107.536346,24.642790 
	C107.536346,56.971779 107.536346,89.300766 107.536346,121.607193 
	C111.286949,121.607193 114.394173,121.607193 117.726883,121.607193 
	C117.726883,85.976418 117.726883,50.604202 117.726883,15.268249 
	C107.158249,13.950542 107.197533,13.971186 102.589813,22.739319 
	C92.461983,42.011776 82.296234,61.264324 72.121140,80.511871 
	C71.550812,81.590714 70.756050,82.550911 69.905182,83.802505 
	C64.829361,76.800858 59.909180,70.334770 55.331177,63.634872 
	C44.438427,47.693356 33.728630,31.626904 22.874651,15.658687 
	C21.913771,14.245050 20.438913,13.180775 19.202774,11.954238 
	C18.708673,12.196093 18.214573,12.437946 17.720472,12.679801 
	C16.468056,48.969234 15.215640,85.258667 13.966869,121.442467 
	C17.960981,121.442467 21.165968,121.442467 24.445402,121.442467 
	C23.890965,105.545708 23.351372,90.074608 22.776859,73.634178 
M433.611053,15.004849 
	C420.818176,15.004849 408.025269,15.004849 395.246155,15.004849 
	C395.246155,50.646141 395.246155,86.070747 395.246155,121.955009 
	C413.408234,121.195595 431.454285,123.721291 449.125000,119.080284 
	C483.226532,110.123894 496.393860,74.482903 483.354645,45.866138 
	C473.926239,25.173820 456.285522,16.649931 433.611053,15.004849 
M276.750916,88.253670 
	C279.928680,82.851982 283.106415,77.450302 286.534210,71.623566 
	C287.928894,73.555840 289.022125,74.992058 290.033417,76.483856 
	C299.469482,90.403519 308.961121,104.286560 318.256561,118.299667 
	C320.029144,120.971893 321.892822,122.296112 325.143402,121.915298 
	C327.535858,121.635010 329.987579,121.860306 333.364227,121.860306 
	C319.711029,101.936134 306.592712,82.792511 293.309082,63.407631 
	C305.297974,47.585949 317.376343,31.646206 329.674652,15.416224 
	C321.562958,13.610638 316.574371,15.082559 312.869141,22.586494 
	C307.062714,34.345768 299.835449,45.404156 293.186462,56.745602 
	C292.562744,57.809505 291.770782,58.774788 290.810333,60.135147 
	C281.816864,46.887749 273.127045,34.092781 264.442993,21.293905 
	C259.537445,14.063983 257.769226,13.407303 248.412384,15.749389 
	C260.388275,33.466743 272.251556,51.017494 284.062256,68.490456 
	C270.853333,86.272102 257.914886,103.689621 244.416962,121.860313 
	C247.075043,121.860313 248.572525,121.663734 250.000366,121.895683 
	C255.111435,122.725967 258.073517,120.651222 260.518890,116.038818 
	C265.425537,106.784027 271.019165,97.893448 276.750916,88.253670 
M196.119476,22.298388 
	C195.765564,21.367777 195.261368,20.464800 195.084274,19.501680 
	C194.390396,15.728029 192.264221,14.632520 188.444565,14.686460 
	C184.788071,14.738097 183.034866,15.629951 181.637909,19.292107 
	C170.739105,47.864002 159.531769,76.318138 148.446335,104.818985 
	C146.295242,110.349487 144.260513,115.925240 142.029968,121.858246 
	C144.120956,121.858246 145.651413,121.642998 147.099350,121.897430 
	C152.016891,122.761566 153.929459,120.510796 155.229599,115.880836 
	C158.546173,104.070137 162.474747,92.430527 166.203781,80.736916 
	C167.237778,77.494484 168.430389,74.302628 169.522980,71.165771 
	C179.898239,71.165771 189.731506,71.347145 199.551926,71.071350 
	C203.186569,70.969284 204.785889,72.222610 206.001297,75.551476 
	C211.240753,89.901878 216.809189,104.131874 222.118988,118.457176 
	C223.065231,121.010048 224.285675,122.244781 227.142151,121.913651 
	C229.491913,121.641258 231.898376,121.858063 234.872742,121.858063 
	C221.840012,88.372299 209.123215,55.698307 196.119476,22.298388 
M623.157837,73.275627 
	C615.726624,56.641602 608.271179,40.018341 600.873901,23.369249 
	C596.902100,14.429906 596.947083,14.407760 587.170593,14.852400 
	C586.848145,14.867064 586.531982,15.019210 586.027832,15.158342 
	C586.180359,15.774594 586.242188,16.432869 586.499146,17.003250 
	C602.166626,51.779652 617.836426,86.555092 633.594482,121.290459 
	C634.101562,122.408180 635.528015,123.108810 636.525940,124.003868 
	C637.532837,122.862679 638.893860,121.882065 639.494812,120.556808 
	C654.904968,86.572197 670.238770,52.552975 685.567261,18.531382 
	C686.057190,17.443834 686.351562,16.268156 686.780029,15.007269 
	C682.711853,15.007269 679.078613,15.007269 675.511841,15.007269 
	C663.666626,46.739574 651.890686,78.286179 639.755127,110.796272 
	C634.041321,97.837425 628.774719,85.892647 623.157837,73.275627 
M520.822998,19.552492 
	C520.822998,53.497295 520.822998,87.442093 520.822998,121.555649 
	C536.821960,121.555649 552.381958,121.555649 567.881897,121.555649 
	C567.881897,118.995247 567.881897,116.725151 567.881897,114.342407 
	C555.551392,115.863380 543.525452,117.346786 531.420166,118.839981 
	C531.420166,101.891937 531.420166,85.145020 531.420166,68.481804 
	C543.049255,68.481804 554.434814,68.481804 565.726074,68.481804 
	C565.726074,66.693962 565.726074,64.960075 565.726074,63.023090 
	C554.092651,63.680531 542.745300,64.321800 531.548035,64.954590 
	C531.548035,48.848103 531.548035,33.474823 531.548035,17.687763 
	C543.771545,19.208200 555.584167,20.677525 567.477478,22.156881 
	C567.477478,19.388031 567.477478,17.184416 567.477478,14.823257 
	C552.789001,14.823257 538.463196,14.923511 524.140808,14.745332 
	C520.977356,14.705977 520.478638,16.032188 520.822998,19.552492 
z"/>
<path fill="#6EB974" opacity="1.000000" stroke="none" 
	d="
M22.794319,74.118851 
	C23.351372,90.074608 23.890965,105.545708 24.445402,121.442467 
	C21.165968,121.442467 17.960981,121.442467 13.966869,121.442467 
	C15.215640,85.258667 16.468056,48.969234 17.720472,12.679801 
	C18.214573,12.437946 18.708673,12.196093 19.202774,11.954238 
	C20.438913,13.180775 21.913771,14.245050 22.874651,15.658687 
	C33.728630,31.626904 44.438427,47.693356 55.331177,63.634872 
	C59.909180,70.334770 64.829361,76.800858 69.905182,83.802505 
	C70.756050,82.550911 71.550812,81.590714 72.121140,80.511871 
	C82.296234,61.264324 92.461983,42.011776 102.589813,22.739319 
	C107.197533,13.971186 107.158249,13.950542 117.726883,15.268249 
	C117.726883,50.604202 117.726883,85.976418 117.726883,121.607193 
	C114.394173,121.607193 111.286949,121.607193 107.536346,121.607193 
	C107.536346,89.300766 107.536346,56.971779 107.536346,24.642790 
	C107.202087,24.563848 106.867836,24.484909 106.533577,24.405970 
	C105.792252,25.582956 104.971115,26.717636 104.321480,27.943226 
	C93.268616,48.795429 82.238182,69.659523 71.199921,90.519455 
	C68.454903,95.706940 65.557945,95.829590 62.176926,90.903648 
	C49.473331,72.395287 36.773338,53.884453 24.065710,35.378860 
	C23.418493,34.436348 22.712725,33.534046 21.016779,32.749157 
	C21.603472,46.377499 22.190166,60.005836 22.794319,74.118851 
z"/>
<path fill="#F3F3F3" opacity="1.000000" stroke="none" 
	d="
M434.074341,15.022259 
	C456.285522,16.649931 473.926239,25.173820 483.354645,45.866138 
	C496.393860,74.482903 483.226532,110.123894 449.125000,119.080284 
	C431.454285,123.721291 413.408234,121.195595 395.246155,121.955009 
	C395.246155,86.070747 395.246155,50.646141 395.246155,15.004849 
	C408.025269,15.004849 420.818176,15.004849 434.074341,15.022259 
M407.417206,18.563183 
	C406.792938,20.157959 405.630402,21.750683 405.624329,23.347824 
	C405.514526,52.137852 405.544342,80.928413 405.544312,109.718864 
	C405.544312,112.338928 405.544312,114.958984 405.544312,118.494026 
	C417.694946,117.923798 429.589264,118.331841 441.157135,116.581947 
	C456.144226,114.314842 466.969666,105.373230 472.366150,90.986366 
	C477.732056,76.681030 477.812195,62.046619 473.062775,47.496273 
	C467.653046,30.922855 452.875183,19.704971 435.378204,18.993046 
	C426.405090,18.627941 417.414917,18.682180 407.417206,18.563183 
z"/>
<path fill="#6FBA75" opacity="1.000000" stroke="none" 
	d="
M276.540070,88.553101 
	C271.019165,97.893448 265.425537,106.784027 260.518890,116.038818 
	C258.073517,120.651222 255.111435,122.725967 250.000366,121.895683 
	C248.572525,121.663734 247.075043,121.860313 244.416962,121.860313 
	C257.914886,103.689621 270.853333,86.272102 284.062256,68.490456 
	C272.251556,51.017494 260.388275,33.466743 248.412384,15.749389 
	C257.769226,13.407303 259.537445,14.063983 264.442993,21.293905 
	C273.127045,34.092781 281.816864,46.887749 290.810333,60.135147 
	C291.770782,58.774788 292.562744,57.809505 293.186462,56.745602 
	C299.835449,45.404156 307.062714,34.345768 312.869141,22.586494 
	C316.574371,15.082559 321.562958,13.610638 329.674652,15.416224 
	C317.376343,31.646206 305.297974,47.585949 293.309082,63.407631 
	C306.592712,82.792511 319.711029,101.936134 333.364227,121.860306 
	C329.987579,121.860306 327.535858,121.635010 325.143402,121.915298 
	C321.892822,122.296112 320.029144,120.971893 318.256561,118.299667 
	C308.961121,104.286560 299.469482,90.403519 290.033417,76.483856 
	C289.022125,74.992058 287.928894,73.555840 286.534210,71.623566 
	C283.106415,77.450302 279.928680,82.851982 276.540070,88.553101 
z"/>
<path fill="#6FBB76" opacity="1.000000" stroke="none" 
	d="
M196.262939,22.661348 
	C209.123215,55.698307 221.840012,88.372299 234.872742,121.858063 
	C231.898376,121.858063 229.491913,121.641258 227.142151,121.913651 
	C224.285675,122.244781 223.065231,121.010048 222.118988,118.457176 
	C216.809189,104.131874 211.240753,89.901878 206.001297,75.551476 
	C204.785889,72.222610 203.186569,70.969284 199.551926,71.071350 
	C189.731506,71.347145 179.898239,71.165771 169.522980,71.165771 
	C168.430389,74.302628 167.237778,77.494484 166.203781,80.736916 
	C162.474747,92.430527 158.546173,104.070137 155.229599,115.880836 
	C153.929459,120.510796 152.016891,122.761566 147.099350,121.897430 
	C145.651413,121.642998 144.120956,121.858246 142.029968,121.858246 
	C144.260513,115.925240 146.295242,110.349487 148.446335,104.818985 
	C159.531769,76.318138 170.739105,47.864002 181.637909,19.292107 
	C183.034866,15.629951 184.788071,14.738097 188.444565,14.686460 
	C192.264221,14.632520 194.390396,15.728029 195.084274,19.501680 
	C195.261368,20.464800 195.765564,21.367777 196.262939,22.661348 
M188.190048,29.323910 
	C187.376190,27.230354 186.562317,25.136797 185.177429,21.574318 
	C180.029373,37.865200 175.347000,52.682407 170.613510,67.661385 
	C181.608994,67.661385 191.795990,67.661385 202.652405,67.661385 
	C197.810089,54.776108 193.159485,42.400986 188.190048,29.323910 
z"/>
<path fill="#F9F9F9" opacity="1.000000" stroke="none" 
	d="
M623.332947,73.611740 
	C628.774719,85.892647 634.041321,97.837425 639.755127,110.796272 
	C651.890686,78.286179 663.666626,46.739574 675.511841,15.007269 
	C679.078613,15.007269 682.711853,15.007269 686.780029,15.007269 
	C686.351562,16.268156 686.057190,17.443834 685.567261,18.531382 
	C670.238770,52.552975 654.904968,86.572197 639.494812,120.556808 
	C638.893860,121.882065 637.532837,122.862679 636.525940,124.003868 
	C635.528015,123.108810 634.101562,122.408180 633.594482,121.290459 
	C617.836426,86.555092 602.166626,51.779652 586.499146,17.003250 
	C586.242188,16.432869 586.180359,15.774594 586.027832,15.158342 
	C586.531982,15.019210 586.848145,14.867064 587.170593,14.852400 
	C596.947083,14.407760 596.902100,14.429906 600.873901,23.369249 
	C608.271179,40.018341 615.726624,56.641602 623.332947,73.611740 
z"/>
<path fill="#FAFAFA" opacity="1.000000" stroke="none" 
	d="
M520.822998,19.058640 
	C520.478638,16.032188 520.977356,14.705977 524.140808,14.745332 
	C538.463196,14.923511 552.789001,14.823257 567.477478,14.823257 
	C567.477478,17.184416 567.477478,19.388031 567.477478,22.156881 
	C555.584167,20.677525 543.771545,19.208200 531.548035,17.687763 
	C531.548035,33.474823 531.548035,48.848103 531.548035,64.954590 
	C542.745300,64.321800 554.092651,63.680531 565.726074,63.023090 
	C565.726074,64.960075 565.726074,66.693962 565.726074,68.481804 
	C554.434814,68.481804 543.049255,68.481804 531.420166,68.481804 
	C531.420166,85.145020 531.420166,101.891937 531.420166,118.839981 
	C543.525452,117.346786 555.551392,115.863380 567.881897,114.342407 
	C567.881897,116.725151 567.881897,118.995247 567.881897,121.555649 
	C552.381958,121.555649 536.821960,121.555649 520.822998,121.555649 
	C520.822998,87.442093 520.822998,53.497295 520.822998,19.058640 
z"/>
<path fill="#010101" opacity="0" stroke="none" 
	d="
M407.924805,18.555046 
	C417.414917,18.682180 426.405090,18.627941 435.378204,18.993046 
	C452.875183,19.704971 467.653046,30.922855 473.062775,47.496273 
	C477.812195,62.046619 477.732056,76.681030 472.366150,90.986366 
	C466.969666,105.373230 456.144226,114.314842 441.157135,116.581947 
	C429.589264,118.331841 417.694946,117.923798 405.544312,118.494026 
	C405.544312,114.958984 405.544312,112.338928 405.544312,109.718864 
	C405.544342,80.928413 405.514526,52.137852 405.624329,23.347824 
	C405.630402,21.750683 406.792938,20.157959 407.924805,18.555046 
z"/>
<path fill="#020302" opacity="0" stroke="none" 
	d="
M188.349457,29.674887 
	C193.159485,42.400986 197.810089,54.776108 202.652405,67.661385 
	C191.795990,67.661385 181.608994,67.661385 170.613510,67.661385 
	C175.347000,52.682407 180.029373,37.865200 185.177429,21.574318 
	C186.562317,25.136797 187.376190,27.230354 188.349457,29.674887 
z"/>
</svg>